<svg xmlns="http://www.w3.org/2000/svg" viewBox="-20 -20 330 330">
    <g class="" transform="translate(0,0)" style="">
        <path d="M58.973,195.03c-5.173,0-9.225,4.349-9.225,9.9c0,5.551,4.052,9.9,9.225,9.9s9.225-4.349,9.225-9.9   C68.198,199.379,64.146,195.03,58.973,195.03z"/>
        <path d="M91.012,195.03c-5.173,0-9.225,4.349-9.225,9.9c0,5.551,4.052,9.9,9.225,9.9c5.173,0,9.225-4.349,9.225-9.9   C100.238,199.379,96.186,195.03,91.012,195.03z"/>
        <path d="M237.105,205.425h-39.6c-4.101,0-7.425,3.324-7.425,7.425c0,4.101,3.324,7.425,7.425,7.425h39.6   c4.101,0,7.425-3.324,7.425-7.425C244.53,208.749,241.206,205.425,237.105,205.425z"/>
        <path d="M237.105,184.14h-39.6c-4.101,0-7.425,3.324-7.425,7.425s3.324,7.425,7.425,7.425h39.6c4.101,0,7.425-3.324,7.425-7.425   S241.206,184.14,237.105,184.14z"/>
        <path d="M146.166,23.124c-11.814,0-21.426,9.612-21.426,21.426s9.612,21.426,21.426,21.426c11.815,0,21.427-9.612,21.427-21.426   S157.981,23.124,146.166,23.124z M146.166,51.126c-3.626,0-6.576-2.95-6.576-6.576c0-3.626,2.95-6.576,6.576-6.576   s6.577,2.95,6.577,6.576C152.743,48.176,149.793,51.126,146.166,51.126z"/>
        <path d="M296.484,289.014l-9.879-130.399V7.425c0-4.101-3.324-7.425-7.425-7.425h-32.67c-4.101,0-7.425,3.324-7.425,7.425V20.79   h-50.49v-8.91c0-4.101-3.324-7.425-7.425-7.425H83.16c-4.101,0-7.425,3.324-7.425,7.425v8.91h-17.82V7.425   C57.915,3.324,54.591,0,50.49,0H17.82c-4.101,0-7.425,3.324-7.425,7.425v151.19L0.516,289.014c-0.157,2.06,0.554,4.093,1.959,5.608   C3.88,296.139,5.853,297,7.92,297h48.015c3.196,0,6.034-2.045,7.044-5.077l9.197-27.593h152.648l9.197,27.593   c1.01,3.032,3.848,5.077,7.044,5.077h48.015c2.067,0,4.04-0.861,5.445-2.377C295.93,293.108,296.64,291.074,296.484,289.014z    M253.935,14.85h17.82v136.62h-17.82V14.85z M239.085,35.64v17.82h-50.49V35.64H239.085z M90.585,19.305h83.16v50.49h-83.16V19.305   z M124.74,86.13v24.241l-5.94,3.96l-5.94-3.96V86.13H124.74z M98.01,84.645v29.7c0,2.483,1.24,4.801,3.306,6.178l13.365,8.91   c1.247,0.831,2.683,1.247,4.119,1.247c1.436,0,2.871-0.416,4.119-1.247l13.365-8.91c2.066-1.377,3.306-3.695,3.306-6.178v-29.7   h41.58c4.101,0,7.425-3.324,7.425-7.425v-8.91h50.49v83.16H57.915V68.31h17.82v8.91c0,4.101,3.324,7.425,7.425,7.425H98.01z    M75.735,35.64v17.82h-17.82V35.64H75.735z M25.245,14.85h17.82v136.62h-17.82V14.85z M246.416,282.15l-9.197-27.593   c-1.01-3.032-3.848-5.077-7.044-5.077H66.825c-3.196,0-6.034,2.045-7.044,5.077l-9.197,27.593H15.929l8.775-115.83h247.593   l8.775,115.83H246.416z"/>
    </g>
</svg>